Heebo-Thin.ufo
<glyph name="numbersign" format="2">
  <advance width="1121"/>
  <unicode hex="0023"/>
  <outline>
    <contour>
      <point x="512" y="1456" type="line"/>
      <point x="248" y="0" type="line"/>
      <point x="304" y="0" type="line"/>
      <point x="568" y="1456" type="line"/>
    </contour>
    <contour>
      <point x="933" y="1456" type="line"/>
      <point x="667" y="0" type="line"/>
      <point x="723" y="0" type="line"/>
      <point x="989" y="1456" type="line"/>
    </contour>
    <contour>
      <point x="127" y="986" type="line"/>
      <point x="1167" y="986" type="line"/>
      <point x="1167" y="1040" type="line"/>
      <point x="127" y="1040" type="line"/>
    </contour>
    <contour>
      <point x="51" y="410" type="line"/>
      <point x="1092" y="410" type="line"/>
      <point x="1092" y="462" type="line"/>
      <point x="51" y="462" type="line"/>
    </contour>
  </outline>
</glyph>
<glyph name="comma" format="2">
  <advance width="383"/>
  <unicode hex="002C"/>
  <guideline y="901"/>
  <guideline y="555"/>
  <anchor x="209" y="214" name="_bottom"/>
  <anchor x="182" y="25" name="_right"/>
  <outline>
    <contour>
      <point x="235" y="27" type="curve"/>
      <point x="235" y="159" type="line"/>
      <point x="181" y="159" type="line"/>
      <point x="181" y="25" type="line"/>
      <point x="181" y="-78"/>
      <point x="152" y="-145"/>
      <point x="92" y="-223" type="curve"/>
      <point x="129" y="-255" type="line"/>
      <point x="192" y="-188"/>
      <point x="235" y="-96"/>
    </contour>
  </outline>
</glyph>
<glyph name="less" format="2">
  <advance width="1053"/>
  <unicode hex="003C"/>
  <guideline y="901"/>
  <guideline y="555"/>
  <outline>
    <contour>
      <point x="919" y="321" type="line"/>
      <point x="117" y="683" type="line"/>
      <point x="82" y="683" type="line"/>
      <point x="82" y="641" type="line"/>
      <point x="919" y="262" type="line"/>
    </contour>
    <contour>
      <point x="118" y="649" type="line"/>
      <point x="919" y="1011" type="line"/>
      <point x="919" y="1069" type="line"/>
      <point x="82" y="691" type="line"/>
      <point x="82" y="649" type="line"/>
    </contour>
  </outline>
</glyph>
<glyph name="A" format="2">
  <advance width="1223"/>
  <unicode hex="0041"/>
  <guideline y="901"/>
  <guideline y="555"/>
  <anchor x="638" y="0" name="bottom"/>
  <anchor x="1223" y="-407" name="bottom_dd"/>
  <anchor x="1189" y="0" name="ogonek"/>
  <anchor x="1189" y="0" name="right"/>
  <anchor x="281" y="1454" name="tonos"/>
  <anchor x="612" y="1612" name="top"/>
  <anchor x="1223" y="1612" name="top0315"/>
  <anchor x="1223" y="1600" name="top_dd"/>
  <outline>
    <contour>
      <point x="92" y="0" type="line"/>
      <point x="618" y="1410" type="line"/>
      <point x="630" y="1456" type="line"/>
      <point x="578" y="1456" type="line"/>
      <point x="33" y="0" type="line"/>
    </contour>
    <contour>
      <point x="604" y="1410" type="line"/>
      <point x="1130" y="0" type="line"/>
      <point x="1189" y="0" type="line"/>
      <point x="644" y="1456" type="line"/>
      <point x="593" y="1456" type="line"/>
    </contour>
    <contour>
      <point x="976" y="435" type="line"/>
      <point x="976" y="489" type="line"/>
      <point x="247" y="489" type="line"/>
      <point x="247" y="435" type="line"/>
    </contour>
  </outline>
</glyph>
<glyph name="D" format="2">
  <advance width="1340"/>
  <unicode hex="0044"/>
  <guideline y="901"/>
  <guideline y="555"/>
  <anchor x="590" y="10" name="bottom"/>
  <anchor x="1340" y="-407" name="bottom_dd"/>
  <anchor x="359" y="738" name="cross"/>
  <anchor x="590" y="1612" name="top"/>
  <anchor x="1340" y="1612" name="top0315"/>
  <anchor x="1340" y="1600" name="top_dd"/>
  <outline>
    <contour>
      <point x="248" y="0" type="line"/>
      <point x="603" y="0" type="line"/>
      <point x="947" y="0"/>
      <point x="1204" y="260"/>
      <point x="1204" y="639" type="curve"/>
      <point x="1204" y="817" type="line"/>
      <point x="1204" y="1196"/>
      <point x="947" y="1456"/>
      <point x="603" y="1456" type="curve"/>
      <point x="242" y="1456" type="line"/>
      <point x="242" y="1402" type="line"/>
      <point x="603" y="1402" type="line"/>
      <point x="916" y="1402"/>
      <point x="1150" y="1159"/>
      <point x="1150" y="820" type="curve"/>
      <point x="1150" y="639" type="line" smooth="yes"/>
      <point x="1150" y="297"/>
      <point x="916" y="54"/>
      <point x="603" y="54" type="curve"/>
      <point x="250" y="54" type="line"/>
    </contour>
    <contour>
      <point x="254" y="0" type="line"/>
      <point x="254" y="1456" type="line"/>
      <point x="200" y="1456" type="line"/>
      <point x="200" y="0" type="line"/>
    </contour>
  </outline>
</glyph>
<glyph name="I" format="2">
  <advance width="534"/>
  <unicode hex="0049"/>
  <guideline y="901"/>
  <guideline y="555"/>
  <anchor x="268" y="0" name="bottom"/>
  <anchor x="534" y="-407" name="bottom_dd"/>
  <anchor x="288" y="0" name="ogonek"/>
  <anchor x="294" y="0" name="right"/>
  <anchor x="-32" y="1451" name="tonos"/>
  <anchor x="268" y="1612" name="top"/>
  <anchor x="534" y="1612" name="top0315"/>
  <anchor x="534" y="1600" name="top_dd"/>
  <outline>
    <contour>
      <point x="294" y="0" type="line"/>
      <point x="294" y="1456" type="line"/>
      <point x="240" y="1456" type="line"/>
      <point x="240" y="0" type="line"/>
    </contour>
  </outline>
</glyph>
<glyph name="O" format="2">
  <advance width="1364"/>
  <unicode hex="004F"/>
  <guideline y="901"/>
  <guideline y="555"/>
  <anchor x="683" y="-2" name="bottom"/>
  <anchor x="1364" y="-407" name="bottom_dd"/>
  <anchor x="130" y="1454" name="tonos"/>
  <anchor x="676" y="1633" name="top"/>
  <anchor x="1364" y="1633" name="top0315"/>
  <anchor x="1364" y="1600" name="top_dd"/>
  <outline>
    <contour>
      <point x="1231" y="619" type="curve"/>
      <point x="1231" y="837" type="line"/>
      <point x="1231" y="1217"/>
      <point x="1016" y="1476"/>
      <point x="681" y="1476" type="curve" smooth="yes"/>
      <point x="347" y="1476"/>
      <point x="133" y="1217"/>
      <point x="133" y="837" type="curve"/>
      <point x="133" y="619" type="line"/>
      <point x="133" y="239"/>
      <point x="349" y="-20"/>
      <point x="683" y="-20" type="curve" smooth="yes"/>
      <point x="1018" y="-20"/>
      <point x="1231" y="239"/>
    </contour>
    <contour>
      <point x="1177" y="839" type="curve"/>
      <point x="1177" y="619" type="line"/>
      <point x="1177" y="276"/>
      <point x="997" y="34"/>
      <point x="683" y="34" type="curve" smooth="yes"/>
      <point x="371" y="34"/>
      <point x="188" y="276"/>
      <point x="188" y="619" type="curve" smooth="yes"/>
      <point x="188" y="839" type="line" smooth="yes"/>
      <point x="188" y="1180"/>
      <point x="369" y="1422"/>
      <point x="681" y="1422" type="curve" smooth="yes"/>
      <point x="995" y="1422"/>
      <point x="1177" y="1180"/>
    </contour>
  </outline>
</glyph>
<glyph name="V" format="2">
  <advance width="1223"/>
  <unicode hex="0056"/>
  <guideline y="901"/>
  <guideline y="555"/>
  <anchor x="614" y="10" name="bottom"/>
  <anchor x="1223" y="-407" name="bottom_dd"/>
  <anchor x="611" y="1612" name="top"/>
  <anchor x="1223" y="1612" name="top0315"/>
  <anchor x="1223" y="1600" name="top_dd"/>
  <outline>
    <contour>
      <point x="1130" y="1456" type="line"/>
      <point x="641" y="142" type="line"/>
      <point x="594" y="0" type="line"/>
      <point x="645" y="0" type="line"/>
      <point x="1189" y="1456" type="line"/>
    </contour>
    <contour>
      <point x="583" y="142" type="line"/>
      <point x="94" y="1456" type="line"/>
      <point x="35" y="1456" type="line"/>
      <point x="579" y="0" type="line"/>
      <point x="630" y="0" type="line"/>
    </contour>
  </outline>
</glyph>
<glyph name="Y" format="2">
  <advance width="1223"/>
  <unicode hex="0059"/>
  <guideline y="901"/>
  <guideline y="555"/>
  <anchor x="612" y="10" name="bottom"/>
  <anchor x="1223" y="-407" name="bottom_dd"/>
  <anchor x="609" y="583" name="cross"/>
  <anchor x="-72" y="1454" name="tonos"/>
  <anchor x="608" y="1601" name="top"/>
  <anchor x="1223" y="1601" name="top0315"/>
  <anchor x="1223" y="1600" name="top_dd"/>
  <outline>
    <contour>
      <point x="609" y="602" type="line"/>
      <point x="105" y="1456" type="line"/>
      <point x="33" y="1456" type="line"/>
      <point x="582" y="553" type="line"/>
      <point x="582" y="0" type="line"/>
      <point x="636" y="0" type="line"/>
      <point x="636" y="553" type="line"/>
      <point x="1185" y="1456" type="line"/>
      <point x="1119" y="1456" type="line"/>
    </contour>
  </outline>
</glyph>
<glyph name="grave" format="2">
  <advance width="537"/>
  <unicode hex="0060"/>
  <anchor x="360" y="1293" name="_top"/>
  <anchor x="360" y="1543" name="mkmktop_acc"/>
  <outline>
    <contour>
      <point x="403" y="1270" type="line"/>
      <point x="215" y="1536" type="line"/>
      <point x="149" y="1536" type="line"/>
      <point x="344" y="1270" type="line"/>
    </contour>
  </outline>
</glyph>
<glyph name="l" format="2">
  <advance width="422"/>
  <unicode hex="006C"/>
  <anchor x="214" y="10" name="bottom"/>
  <anchor x="422" y="-407" name="bottom_dd"/>
  <anchor x="417" y="1536" name="caron"/>
  <anchor x="397" y="794" name="dot"/>
  <anchor x="474" y="1503" name="marktop"/>
  <anchor x="214" y="1673" name="top"/>
  <anchor x="422" y="1673" name="top0315"/>
  <anchor x="422" y="1600" name="top_dd"/>
  <outline>
    <contour>
      <point x="239" y="0" type="line"/>
      <point x="239" y="1536" type="line"/>
      <point x="185" y="1536" type="line"/>
      <point x="185" y="0" type="line"/>
    </contour>
  </outline>
</glyph>
<glyph name="u" format="2">
  <advance width="1121"/>
  <unicode hex="0075"/>
  <guideline y="202"/>
  <guideline y="547"/>
  <anchor x="560" y="0" name="bottom"/>
  <anchor x="1121" y="-407" name="bottom_dd"/>
  <anchor x="514" y="0" name="bottomu"/>
  <anchor x="951" y="0" name="ogonek"/>
  <anchor x="924" y="654" name="rhotichook"/>
  <anchor x="580" y="1293" name="top"/>
  <anchor x="1121" y="1293" name="top0315"/>
  <anchor x="1121" y="1600" name="top_dd"/>
  <outline>
    <contour>
      <point x="897" y="1082" type="line"/>
      <point x="897" y="250" type="line"/>
      <point x="897" y="0" type="line"/>
      <point x="952" y="0" type="line"/>
      <point x="952" y="1082" type="line"/>
    </contour>
    <contour>
      <point x="952" y="425" type="curve"/>
      <point x="906" y="423" type="line"/>
      <point x="906" y="226"/>
      <point x="814" y="34"/>
      <point x="522" y="34" type="curve" smooth="yes"/>
      <point x="349" y="34"/>
      <point x="222" y="128"/>
      <point x="222" y="393" type="curve"/>
      <point x="222" y="1082" type="line"/>
      <point x="168" y="1082" type="line"/>
      <point x="168" y="395" type="line"/>
      <point x="168" y="93"/>
      <point x="312" y="-20"/>
      <point x="524" y="-20" type="curve" smooth="yes"/>
      <point x="822" y="-20"/>
      <point x="952" y="169"/>
    </contour>
  </outline>
</glyph>
<glyph name="acute" format="2">
  <advance width="511"/>
  <unicode hex="00B4"/>
  <outline>
    <contour>
      <point x="315" y="1536" type="line"/>
      <point x="126" y="1270" type="line"/>
      <point x="186" y="1270" type="line"/>
      <point x="381" y="1536" type="line"/>
    </contour>
  </outline>
</glyph>
<glyph name="mu" format="2">
  <advance width="1121"/>
  <unicode hex="00B5"/>
  <outline>
    <contour>
      <point x="168" y="640" type="line"/>
      <point x="168" y="-415" type="line"/>
      <point x="222" y="-415" type="line"/>
      <point x="222" y="640" type="line"/>
    </contour>
    <contour>
      <point x="897" y="1082" type="line"/>
      <point x="897" y="250" type="line"/>
      <point x="897" y="0" type="line"/>
      <point x="952" y="0" type="line"/>
      <point x="952" y="1082" type="line"/>
    </contour>
    <contour>
      <point x="952" y="425" type="curve"/>
      <point x="906" y="423" type="line"/>
      <point x="906" y="226"/>
      <point x="814" y="34"/>
      <point x="522" y="34" type="curve" smooth="yes"/>
      <point x="349" y="34"/>
      <point x="222" y="128"/>
      <point x="222" y="393" type="curve"/>
      <point x="222" y="1082" type="line"/>
      <point x="168" y="1082" type="line"/>
      <point x="168" y="395" type="line"/>
      <point x="168" y="93"/>
      <point x="312" y="-20"/>
      <point x="524" y="-20" type="curve" smooth="yes"/>
      <point x="822" y="-20"/>
      <point x="952" y="169"/>
    </contour>
  </outline>
</glyph>
<glyph name="gravecomb" format="2">
  <unicode hex="0300"/>
  <anchor x="-544" y="1293" name="_marktop"/>
  <anchor x="-544" y="1293" name="_top"/>
  <anchor x="-544" y="1543" name="mkmktop"/>
  <anchor x="-617" y="1403" name="parent_top"/>
  <outline>
    <contour>
      <point x="-490" y="1270" type="line"/>
      <point x="-678" y="1536" type="line"/>
      <point x="-744" y="1536" type="line"/>
      <point x="-549" y="1270" type="line"/>
    </contour>
  </outline>
</glyph>
<glyph name="shevahebrew" format="2">
  <unicode hex="05B0"/>
  <anchor x="563" y="0" name="_bottom"/>
  <outline>
    <contour>
      <point x="562" y="-291" type="curve" smooth="yes"/>
      <point x="593" y="-291"/>
      <point x="618" y="-267"/>
      <point x="618" y="-236" type="curve" smooth="yes"/>
      <point x="618" y="-205"/>
      <point x="593" y="-180"/>
      <point x="562" y="-180" type="curve" smooth="yes"/>
      <point x="531" y="-180"/>
      <point x="507" y="-205"/>
      <point x="507" y="-236" type="curve" smooth="yes"/>
      <point x="507" y="-267"/>
      <point x="531" y="-291"/>
    </contour>
    <contour>
      <point x="562" y="-481" type="curve" smooth="yes"/>
      <point x="593" y="-481"/>
      <point x="618" y="-457"/>
      <point x="618" y="-426" type="curve" smooth="yes"/>
      <point x="618" y="-395"/>
      <point x="593" y="-370"/>
      <point x="562" y="-370" type="curve" smooth="yes"/>
      <point x="531" y="-370"/>
      <point x="507" y="-395"/>
      <point x="507" y="-426" type="curve" smooth="yes"/>
      <point x="507" y="-457"/>
      <point x="531" y="-481"/>
    </contour>
  </outline>
</glyph>
<glyph name="hiriqhebrew" format="2">
  <unicode hex="05B4"/>
  <anchor x="563" y="0" name="_bottom"/>
  <outline>
    <contour>
      <point x="562" y="-291" type="curve" smooth="yes"/>
      <point x="593" y="-291"/>
      <point x="618" y="-267"/>
      <point x="618" y="-236" type="curve" smooth="yes"/>
      <point x="618" y="-205"/>
      <point x="593" y="-180"/>
      <point x="562" y="-180" type="curve" smooth="yes"/>
      <point x="531" y="-180"/>
      <point x="507" y="-205"/>
      <point x="507" y="-236" type="curve" smooth="yes"/>
      <point x="507" y="-261"/>
      <point x="531" y="-291"/>
    </contour>
  </outline>
</glyph>
<glyph name="tserehebrew" format="2">
  <unicode hex="05B5"/>
  <anchor x="563" y="0" name="_bottom"/>
  <outline>
    <contour>
      <point x="652" y="-291" type="curve" smooth="yes"/>
      <point x="683" y="-291"/>
      <point x="708" y="-267"/>
      <point x="708" y="-236" type="curve" smooth="yes"/>
      <point x="708" y="-205"/>
      <point x="683" y="-180"/>
      <point x="652" y="-180" type="curve" smooth="yes"/>
      <point x="621" y="-180"/>
      <point x="597" y="-205"/>
      <point x="597" y="-236" type="curve" smooth="yes"/>
      <point x="597" y="-261"/>
      <point x="621" y="-291"/>
    </contour>
    <contour>
      <point x="472" y="-291" type="curve" smooth="yes"/>
      <point x="503" y="-291"/>
      <point x="528" y="-267"/>
      <point x="528" y="-236" type="curve" smooth="yes"/>
      <point x="528" y="-205"/>
      <point x="503" y="-180"/>
      <point x="472" y="-180" type="curve" smooth="yes"/>
      <point x="441" y="-180"/>
      <point x="417" y="-205"/>
      <point x="417" y="-236" type="curve" smooth="yes"/>
      <point x="417" y="-261"/>
      <point x="441" y="-291"/>
    </contour>
  </outline>
</glyph>
<glyph name="patahhebrew" format="2">
  <unicode hex="05B7"/>
  <anchor x="563" y="0" name="_bottom"/>
  <outline>
    <contour>
      <point x="397" y="-263" type="line"/>
      <point x="728" y="-263" type="line"/>
      <point x="728" y="-207" type="line"/>
      <point x="397" y="-207" type="line"/>
    </contour>
  </outline>
</glyph>
<glyph name="holamhaserhebrew" format="2">
  <unicode hex="05BA"/>
  <anchor x="220" y="1157" name="_topleft"/>
  <outline>
    <contour>
      <point x="219" y="1309" type="curve" smooth="yes"/>
      <point x="250" y="1309"/>
      <point x="275" y="1333"/>
      <point x="275" y="1364" type="curve" smooth="yes"/>
      <point x="275" y="1395"/>
      <point x="250" y="1420"/>
      <point x="219" y="1420" type="curve" smooth="yes"/>
      <point x="188" y="1420"/>
      <point x="164" y="1395"/>
      <point x="164" y="1364" type="curve" smooth="yes"/>
      <point x="164" y="1339"/>
      <point x="188" y="1309"/>
    </contour>
  </outline>
</glyph>
<glyph name="qubutshebrew" format="2">
  <unicode hex="05BB"/>
  <anchor x="563" y="0" name="_bottom"/>
  <outline>
    <contour>
      <point x="563" y="-291" type="curve" smooth="yes"/>
      <point x="594" y="-291"/>
      <point x="619" y="-267"/>
      <point x="619" y="-236" type="curve" smooth="yes"/>
      <point x="619" y="-205"/>
      <point x="594" y="-180"/>
      <point x="563" y="-180" type="curve" smooth="yes"/>
      <point x="532" y="-180"/>
      <point x="508" y="-205"/>
      <point x="508" y="-236" type="curve" smooth="yes"/>
      <point x="508" y="-261"/>
      <point x="532" y="-291"/>
    </contour>
    <contour>
      <point x="783" y="-571" type="curve" smooth="yes"/>
      <point x="814" y="-571"/>
      <point x="839" y="-547"/>
      <point x="839" y="-516" type="curve" smooth="yes"/>
      <point x="839" y="-485"/>
      <point x="814" y="-460"/>
      <point x="783" y="-460" type="curve" smooth="yes"/>
      <point x="752" y="-460"/>
      <point x="728" y="-485"/>
      <point x="728" y="-516" type="curve" smooth="yes"/>
      <point x="728" y="-541"/>
      <point x="752" y="-571"/>
    </contour>
    <contour>
      <point x="673" y="-431" type="curve" smooth="yes"/>
      <point x="704" y="-431"/>
      <point x="729" y="-407"/>
      <point x="729" y="-376" type="curve" smooth="yes"/>
      <point x="729" y="-345"/>
      <point x="704" y="-320"/>
      <point x="673" y="-320" type="curve" smooth="yes"/>
      <point x="642" y="-320"/>
      <point x="618" y="-345"/>
      <point x="618" y="-376" type="curve" smooth="yes"/>
      <point x="618" y="-401"/>
      <point x="642" y="-431"/>
    </contour>
  </outline>
</glyph>
<glyph name="dageshhebrew" format="2">
  <unicode hex="05BC"/>
  <anchor x="299" y="594" name="_center"/>
  <outline>
    <contour>
      <point x="299" y="539" type="curve" smooth="yes"/>
      <point x="330" y="539"/>
      <point x="355" y="563"/>
      <point x="355" y="594" type="curve" smooth="yes"/>
      <point x="355" y="625"/>
      <point x="330" y="650"/>
      <point x="299" y="650" type="curve" smooth="yes"/>
      <point x="268" y="650"/>
      <point x="244" y="625"/>
      <point x="244" y="594" type="curve" smooth="yes"/>
      <point x="244" y="569"/>
      <point x="268" y="539"/>
    </contour>
  </outline>
</glyph>
<glyph name="rafehebrew" format="2">
  <unicode hex="05BF"/>
  <anchor x="456" y="1157" name="_top"/>
  <outline>
    <contour>
      <point x="260" y="1347" type="line"/>
      <point x="651" y="1347" type="line"/>
      <point x="651" y="1403" type="line"/>
      <point x="260" y="1403" type="line"/>
    </contour>
  </outline>
</glyph>
<glyph name="sindothebrew" format="2">
  <unicode hex="05C2"/>
  <anchor x="0" y="1157" name="_topleft"/>
  <outline>
    <contour>
      <point x="191" y="1309" type="curve" smooth="yes"/>
      <point x="222" y="1309"/>
      <point x="247" y="1333"/>
      <point x="247" y="1364" type="curve" smooth="yes"/>
      <point x="247" y="1395"/>
      <point x="222" y="1420"/>
      <point x="191" y="1420" type="curve" smooth="yes"/>
      <point x="160" y="1420"/>
      <point x="136" y="1395"/>
      <point x="136" y="1364" type="curve" smooth="yes"/>
      <point x="136" y="1339"/>
      <point x="160" y="1309"/>
    </contour>
  </outline>
</glyph>
<glyph name="qamatsqatanhebrew" format="2">
  <unicode hex="05C7"/>
  <anchor x="563" y="0" name="_bottom"/>
  <outline>
    <contour>
      <point x="566" y="-476" type="curve" smooth="yes"/>
      <point x="597" y="-476"/>
      <point x="622" y="-452"/>
      <point x="622" y="-421" type="curve" smooth="yes"/>
      <point x="622" y="-392"/>
      <point x="610" y="-380"/>
      <point x="600" y="-349" type="curve" smooth="yes"/>
      <point x="595" y="-334"/>
      <point x="590" y="-293"/>
      <point x="589" y="-263" type="curve"/>
      <point x="728" y="-263" type="line"/>
      <point x="728" y="-207" type="line"/>
      <point x="397" y="-207" type="line"/>
      <point x="397" y="-263" type="line"/>
      <point x="543" y="-263" type="line"/>
      <point x="542" y="-294"/>
      <point x="537" y="-334"/>
      <point x="532" y="-350" type="curve" smooth="yes"/>
      <point x="523" y="-380"/>
      <point x="511" y="-393"/>
      <point x="511" y="-421" type="curve" smooth="yes"/>
      <point x="511" y="-446"/>
      <point x="535" y="-476"/>
    </contour>
  </outline>
</glyph>
<glyph name="bethebrew" format="2">
  <advance width="1025"/>
  <unicode hex="05D1"/>
  <anchor x="500" y="0" name="bottom"/>
  <anchor x="414" y="603" name="center"/>
  <anchor x="458" y="1157" name="top"/>
  <anchor x="2" y="1157" name="topleft"/>
  <outline>
    <contour>
      <point x="70" y="0" type="line"/>
      <point x="975" y="0" type="line"/>
      <point x="975" y="50" type="line"/>
      <point x="830" y="61" type="line"/>
      <point x="771" y="55" type="line"/>
      <point x="70" y="55" type="line"/>
    </contour>
    <contour>
      <point x="771" y="12" type="line"/>
      <point x="830" y="12" type="line"/>
      <point x="830" y="709" type="line" smooth="yes"/>
      <point x="830" y="1016"/>
      <point x="688" y="1157"/>
      <point x="378" y="1157" type="curve" smooth="yes"/>
      <point x="133" y="1157" type="line"/>
      <point x="133" y="1102" type="line"/>
      <point x="381" y="1102" type="line" smooth="yes"/>
      <point x="660" y="1102"/>
      <point x="771" y="988"/>
      <point x="771" y="704" type="curve" smooth="yes"/>
    </contour>
  </outline>
</glyph>
<glyph name="dalethebrew" format="2">
  <advance width="975"/>
  <unicode hex="05D3"/>
  <anchor x="702" y="0" name="bottom"/>
  <anchor x="353" y="603" name="center"/>
  <anchor x="488" y="1157" name="top"/>
  <anchor x="3" y="1157" name="topleft"/>
  <outline>
    <contour>
      <point x="60" y="1157" type="line"/>
      <point x="60" y="1102" type="line"/>
      <point x="672" y="1102" type="line"/>
      <point x="672" y="0" type="line"/>
      <point x="731" y="0" type="line"/>
      <point x="731" y="1102" type="line"/>
      <point x="915" y="1102" type="line"/>
      <point x="915" y="1157" type="line"/>
    </contour>
  </outline>
</glyph>
<glyph name="hehebrew" format="2">
  <advance width="1158"/>
  <unicode hex="05D4"/>
  <anchor x="577" y="0" name="bottom"/>
  <anchor x="577" y="603" name="center"/>
  <anchor x="575" y="1157" name="top"/>
  <anchor x="26" y="1157" name="topleft"/>
  <outline>
    <contour>
      <point x="919" y="0" type="line"/>
      <point x="978" y="0" type="line"/>
      <point x="978" y="709" type="line"/>
      <point x="978" y="1016"/>
      <point x="836" y="1157"/>
      <point x="526" y="1157" type="curve" smooth="yes"/>
      <point x="170" y="1157" type="line"/>
      <point x="170" y="1102" type="line"/>
      <point x="529" y="1102" type="line" smooth="yes"/>
      <point x="808" y="1102"/>
      <point x="919" y="988"/>
      <point x="919" y="704" type="curve"/>
    </contour>
    <contour>
      <point x="176" y="0" type="line"/>
      <point x="235" y="0" type="line"/>
      <point x="235" y="383" type="line" smooth="yes"/>
      <point x="235" y="499"/>
      <point x="243" y="565"/>
      <point x="265" y="633" type="curve"/>
      <point x="209" y="633" type="line"/>
      <point x="184" y="558"/>
      <point x="176" y="503"/>
      <point x="176" y="393" type="curve" smooth="yes"/>
    </contour>
  </outline>
</glyph>
<glyph name="vavhebrew" format="2">
  <advance width="518"/>
  <unicode hex="05D5"/>
  <anchor x="298" y="0" name="bottom"/>
  <anchor x="100" y="603" name="center"/>
  <anchor x="214" y="1157" name="top"/>
  <anchor x="213" y="1157" name="topleft"/>
  <outline>
    <contour>
      <point x="269" y="0" type="line"/>
      <point x="328" y="0" type="line"/>
      <point x="328" y="1157" type="line"/>
      <point x="100" y="1157" type="line"/>
      <point x="100" y="1102" type="line"/>
      <point x="269" y="1102" type="line"/>
    </contour>
  </outline>
</glyph>
<glyph name="tethebrew" format="2">
  <advance width="1197"/>
  <unicode hex="05D8"/>
  <anchor x="609" y="0" name="bottom"/>
  <anchor x="621" y="603" name="center"/>
  <anchor x="596" y="1157" name="top"/>
  <anchor x="46" y="1157" name="topleft"/>
  <outline>
    <contour>
      <point x="609" y="-20" type="curve" smooth="yes"/>
      <point x="860" y="-20"/>
      <point x="1027" y="152"/>
      <point x="1027" y="410" type="curve" smooth="yes"/>
      <point x="1027" y="868" type="line" smooth="yes"/>
      <point x="1027" y="1072"/>
      <point x="951" y="1165"/>
      <point x="784" y="1165" type="curve" smooth="yes"/>
      <point x="703" y="1165"/>
      <point x="641" y="1147"/>
      <point x="563" y="1109" type="curve"/>
      <point x="585" y="1059" type="line"/>
      <point x="659" y="1093"/>
      <point x="715" y="1109"/>
      <point x="787" y="1109" type="curve" smooth="yes"/>
      <point x="911" y="1109"/>
      <point x="968" y="1032"/>
      <point x="968" y="864" type="curve" smooth="yes"/>
      <point x="968" y="420" type="line" smooth="yes"/>
      <point x="968" y="190"/>
      <point x="824" y="36"/>
      <point x="609" y="36" type="curve" smooth="yes"/>
      <point x="393" y="36"/>
      <point x="249" y="190"/>
      <point x="249" y="420" type="curve" smooth="yes"/>
      <point x="249" y="1157" type="line"/>
      <point x="190" y="1157" type="line"/>
      <point x="190" y="410" type="line"/>
      <point x="190" y="152"/>
      <point x="358" y="-20"/>
    </contour>
  </outline>
</glyph>
<glyph name="lamedhebrew" format="2">
  <advance width="1012"/>
  <unicode hex="05DC"/>
  <anchor x="429" y="0" name="bottom"/>
  <anchor x="352" y="719" name="center"/>
  <anchor x="539" y="1157" name="top"/>
  <anchor x="-2" y="1371" name="topleft"/>
  <outline>
    <contour>
      <point x="100" y="1102" type="line"/>
      <point x="879" y="1102" type="line"/>
      <point x="879" y="1157" type="line"/>
      <point x="159" y="1157" type="line"/>
      <point x="159" y="1536" type="line"/>
      <point x="100" y="1536" type="line"/>
    </contour>
    <contour>
      <point x="912" y="1122" type="line"/>
      <point x="912" y="1157" type="line"/>
      <point x="863" y="1157" type="line"/>
      <point x="379" y="0" type="line"/>
      <point x="446" y="0" type="line"/>
    </contour>
  </outline>
</glyph>
<glyph name="finalmemhebrew" format="2">
  <advance width="1229"/>
  <unicode hex="05DD"/>
  <anchor x="609" y="0" name="bottom"/>
  <anchor x="609" y="603" name="center"/>
  <anchor x="609" y="1157" name="top"/>
  <anchor x="22" y="1157" name="topleft"/>
  <outline>
    <contour>
      <point x="180" y="0" type="line"/>
      <point x="1039" y="0" type="line"/>
      <point x="1039" y="1157" type="line"/>
      <point x="180" y="1157" type="line"/>
    </contour>
    <contour>
      <point x="239" y="55" type="line"/>
      <point x="239" y="1102" type="line"/>
      <point x="980" y="1102" type="line"/>
      <point x="980" y="55" type="line"/>
    </contour>
  </outline>
</glyph>
<glyph name="memhebrew" format="2">
  <advance width="1229"/>
  <unicode hex="05DE"/>
  <anchor x="622" y="0" name="bottom"/>
  <anchor x="651" y="603" name="center"/>
  <anchor x="667" y="1157" name="top"/>
  <anchor x="42" y="1157" name="topleft"/>
  <outline>
    <contour>
      <point x="178" y="0" type="line"/>
      <point x="237" y="0" type="line"/>
      <point x="343" y="818" type="line" smooth="yes"/>
      <point x="366" y="994"/>
      <point x="482" y="1112"/>
      <point x="633" y="1112" type="curve" smooth="yes"/>
      <point x="873" y="1112"/>
      <point x="1000" y="984"/>
      <point x="1000" y="724" type="curve" smooth="yes"/>
      <point x="1000" y="55" type="line"/>
      <point x="613" y="55" type="line"/>
      <point x="613" y="0" type="line"/>
      <point x="1059" y="0" type="line"/>
      <point x="1059" y="724" type="line" smooth="yes"/>
      <point x="1059" y="1017"/>
      <point x="906" y="1170"/>
      <point x="635" y="1170" type="curve" smooth="yes"/>
      <point x="496" y="1170"/>
      <point x="302" y="1136"/>
      <point x="150" y="1085" type="curve"/>
      <point x="170" y="1032" type="line"/>
      <point x="305" y="1074"/>
      <point x="390" y="1096"/>
      <point x="467" y="1108" type="curve"/>
      <point x="468" y="1102" type="line"/>
      <point x="457" y="1098"/>
      <point x="444" y="1094"/>
      <point x="434" y="1088" type="curve" smooth="yes"/>
      <point x="357" y="1043"/>
      <point x="296" y="937"/>
      <point x="281" y="822" type="curve" smooth="yes"/>
    </contour>
  </outline>
</glyph>
<glyph name="finalnunhebrew" format="2">
  <advance width="518"/>
  <unicode hex="05DF"/>
  <anchor x="-55" y="603" name="bottom"/>
  <anchor x="89" y="603" name="center"/>
  <anchor x="222" y="1157" name="top"/>
  <anchor x="3" y="1157" name="topleft"/>
  <outline>
    <contour>
      <point x="269" y="-416" type="line"/>
      <point x="328" y="-416" type="line"/>
      <point x="328" y="1157" type="line"/>
      <point x="100" y="1157" type="line"/>
      <point x="100" y="1102" type="line"/>
      <point x="269" y="1102" type="line"/>
    </contour>
  </outline>
</glyph>
<glyph name="pehebrew" format="2">
  <advance width="1165"/>
  <unicode hex="05E4"/>
  <anchor x="585" y="0" name="bottom"/>
  <anchor x="579" y="801" name="center"/>
  <anchor x="583" y="1157" name="top"/>
  <anchor x="24" y="1157" name="topleft"/>
  <outline>
    <contour>
      <point x="514" y="-14" type="curve" smooth="yes"/>
      <point x="799" y="-14"/>
      <point x="975" y="146"/>
      <point x="975" y="441" type="curve" smooth="yes"/>
      <point x="975" y="1157" type="line"/>
      <point x="160" y="1157" type="line"/>
      <point x="160" y="1102" type="line"/>
      <point x="281" y="1102" type="line"/>
      <point x="214" y="1012"/>
      <point x="169" y="859"/>
      <point x="169" y="719" type="curve" smooth="yes"/>
      <point x="169" y="563" type="line"/>
      <point x="259" y="517"/>
      <point x="322" y="506"/>
      <point x="483" y="506" type="curve"/>
      <point x="483" y="563" type="line"/>
      <point x="340" y="563"/>
      <point x="289" y="570"/>
      <point x="228" y="600" type="curve"/>
      <point x="228" y="715" type="line" smooth="yes"/>
      <point x="228" y="862"/>
      <point x="272" y="1017"/>
      <point x="338" y="1102" type="curve"/>
      <point x="916" y="1102" type="line"/>
      <point x="916" y="417" type="line" smooth="yes"/>
      <point x="916" y="180"/>
      <point x="766" y="46"/>
      <point x="520" y="43" type="curve" smooth="yes"/>
      <point x="429" y="42"/>
      <point x="324" y="58"/>
      <point x="210" y="94" type="curve"/>
      <point x="197" y="43" type="line"/>
      <point x="313" y="5"/>
      <point x="419" y="-14"/>
    </contour>
  </outline>
</glyph>
<glyph name="finaltsadihebrew" format="2">
  <advance width="1007"/>
  <unicode hex="05E5"/>
  <anchor x="188" y="427" name="bottom"/>
  <anchor x="326" y="427" name="center"/>
  <anchor x="518" y="1157" name="top"/>
  <anchor x="-1" y="1157" name="topleft"/>
  <outline>
    <contour>
      <point x="581" y="-416" type="line"/>
      <point x="640" y="-416" type="line"/>
      <point x="640" y="349" type="line" smooth="yes"/>
      <point x="640" y="427"/>
      <point x="629" y="479"/>
      <point x="606" y="513" type="curve" smooth="yes"/>
      <point x="547" y="598" type="line"/>
      <point x="159" y="1157" type="line"/>
      <point x="89" y="1157" type="line"/>
      <point x="559" y="477" type="line" smooth="yes"/>
      <point x="575" y="453"/>
      <point x="581" y="413"/>
      <point x="581" y="349" type="curve" smooth="yes"/>
    </contour>
    <contour>
      <point x="556" y="530" type="line"/>
      <point x="948" y="1157" type="line"/>
      <point x="879" y="1157" type="line"/>
      <point x="519" y="581" type="line"/>
    </contour>
  </outline>
</glyph>
<glyph name="reshhebrew" format="2">
  <advance width="974"/>
  <unicode hex="05E8"/>
  <anchor x="766" y="0" name="bottom"/>
  <anchor x="372" y="603" name="center"/>
  <anchor x="423" y="1157" name="top"/>
  <anchor x="0" y="1157" name="topleft"/>
  <outline>
    <contour>
      <point x="735" y="0" type="line"/>
      <point x="794" y="0" type="line"/>
      <point x="794" y="839" type="line" smooth="yes"/>
      <point x="794" y="1039"/>
      <point x="676" y="1157"/>
      <point x="477" y="1157" type="curve" smooth="yes"/>
      <point x="59" y="1157" type="line"/>
      <point x="59" y="1102" type="line"/>
      <point x="490" y="1102" type="line" smooth="yes"/>
      <point x="637" y="1102"/>
      <point x="735" y="1001"/>
      <point x="735" y="850" type="curve" smooth="yes"/>
    </contour>
  </outline>
</glyph>
<glyph name="shinhebrew" format="2">
  <advance width="1464"/>
  <unicode hex="05E9"/>
  <anchor x="726" y="0" name="bottom"/>
  <anchor x="986" y="603" name="center"/>
  <anchor x="726" y="1157" name="top"/>
  <anchor x="16" y="1157" name="topleft"/>
  <anchor x="10" y="1157" name="topright"/>
  <outline>
    <contour>
      <point x="249" y="1157" type="line"/>
      <point x="190" y="1157" type="line"/>
      <point x="190" y="95" type="line"/>
      <point x="350" y="19"/>
      <point x="528" y="-20"/>
      <point x="693" y="-20" type="curve" smooth="yes"/>
      <point x="1007" y="-20"/>
      <point x="1274" y="121"/>
      <point x="1274" y="417" type="curve" smooth="yes"/>
      <point x="1274" y="1157" type="line"/>
      <point x="1215" y="1157" type="line"/>
      <point x="1215" y="417" type="line" smooth="yes"/>
      <point x="1215" y="162"/>
      <point x="974" y="36"/>
      <point x="689" y="36" type="curve" smooth="yes"/>
      <point x="545" y="36"/>
      <point x="390" y="69"/>
      <point x="249" y="131" type="curve"/>
    </contour>
    <contour>
      <point x="590" y="259" type="curve"/>
      <point x="644" y="246" type="line"/>
      <point x="729" y="323"/>
      <point x="759" y="396"/>
      <point x="759" y="530" type="curve" smooth="yes"/>
      <point x="759" y="1157" type="line"/>
      <point x="700" y="1157" type="line"/>
      <point x="700" y="530" type="line" smooth="yes"/>
      <point x="700" y="399"/>
      <point x="665" y="313"/>
    </contour>
  </outline>
</glyph>
<glyph name="gereshhebrew" format="2">
  <advance width="223"/>
  <unicode hex="05F3"/>
  <outline>
    <contour>
      <point x="47" y="936" type="line"/>
      <point x="110" y="1003"/>
      <point x="153" y="1095"/>
      <point x="153" y="1218" type="curve"/>
      <point x="153" y="1400" type="line"/>
      <point x="94" y="1400" type="line"/>
      <point x="94" y="1216" type="line"/>
      <point x="94" y="1113"/>
      <point x="70" y="1046"/>
      <point x="10" y="968" type="curve"/>
    </contour>
  </outline>
</glyph>
<glyph name="afii61664" format="2">
  <unicode hex="200C"/>
  <outline>
    <contour>
      <point x="-589" y="1275" type="line"/>
      <point x="-589" y="-200" type="line"/>
      <point x="-535" y="-200" type="line"/>
      <point x="-535" y="1275" type="line"/>
    </contour>
  </outline>
</glyph>
<glyph name="guilsinglright" format="2">
  <advance width="604"/>
  <unicode hex="203A"/>
  <guideline y="98"/>
  <guideline y="443"/>
  <outline>
    <contour>
      <point x="403" y="555" type="line"/>
      <point x="106" y="171" type="line"/>
      <point x="176" y="171" type="line"/>
      <point x="470" y="541" type="line"/>
      <point x="470" y="554" type="line"/>
    </contour>
    <contour>
      <point x="176" y="940" type="line"/>
      <point x="106" y="940" type="line"/>
      <point x="403" y="546" type="line"/>
      <point x="470" y="547" type="line"/>
      <point x="470" y="560" type="line"/>
    </contour>
  </outline>
</glyph>
<glyph name="widealefhebrew" format="2">
  <advance width="1715"/>
  <unicode hex="FB21"/>
  <anchor x="829" y="0" name="bottom"/>
  <anchor x="607" y="330" name="center"/>
  <anchor x="871" y="1157" name="top"/>
  <anchor x="20" y="1157" name="topleft"/>
  <outline>
    <contour>
      <point x="1476" y="0" type="line"/>
      <point x="1567" y="0" type="line"/>
      <point x="255" y="1157" type="line"/>
      <point x="170" y="1157" type="line"/>
    </contour>
    <contour>
      <point x="226" y="0" type="line"/>
      <point x="285" y="0" type="line"/>
      <point x="285" y="579" type="line" smooth="yes"/>
      <point x="285" y="759"/>
      <point x="340" y="883"/>
      <point x="430" y="961" type="curve"/>
      <point x="394" y="997" type="line"/>
      <point x="291" y="911"/>
      <point x="226" y="770"/>
      <point x="226" y="589" type="curve" smooth="yes"/>
    </contour>
    <contour>
      <point x="1105" y="366" type="line"/>
      <point x="1600" y="1157" type="line"/>
      <point x="1531" y="1157" type="line"/>
      <point x="1061" y="406" type="line"/>
    </contour>
  </outline>
</glyph>
<glyph name="widedalethebrew" format="2">
  <advance width="1255"/>
  <unicode hex="FB22"/>
  <anchor x="947" y="0" name="bottom"/>
  <anchor x="467" y="603" name="center"/>
  <anchor x="592" y="1157" name="top"/>
  <anchor x="3" y="1157" name="topleft"/>
  <outline>
    <contour>
      <point x="60" y="1157" type="line"/>
      <point x="60" y="1102" type="line"/>
      <point x="918" y="1102" type="line"/>
      <point x="918" y="0" type="line"/>
      <point x="977" y="0" type="line"/>
      <point x="977" y="1093" type="line"/>
      <point x="1195" y="1109" type="line"/>
      <point x="1195" y="1157" type="line"/>
    </contour>
  </outline>
</glyph>
<glyph name="widelamedhebrew" format="2">
  <advance width="1397"/>
  <unicode hex="FB25"/>
  <anchor x="618" y="0" name="bottom"/>
  <anchor x="504" y="603" name="center"/>
  <anchor x="692" y="1157" name="top"/>
  <anchor x="-2" y="1370" name="topleft"/>
  <outline>
    <contour>
      <point x="1238" y="1102" type="line"/>
      <point x="1297" y="1157" type="line"/>
      <point x="159" y="1157" type="line"/>
      <point x="159" y="1536" type="line"/>
      <point x="100" y="1536" type="line"/>
      <point x="100" y="1102" type="line"/>
    </contour>
    <contour>
      <point x="1297" y="1122" type="line"/>
      <point x="1297" y="1157" type="line"/>
      <point x="1248" y="1157" type="line"/>
      <point x="577" y="0" type="line"/>
      <point x="644" y="0" type="line"/>
    </contour>
  </outline>
</glyph>
<glyph name="finalwidememhebrew" format="2">
  <advance width="1809"/>
  <unicode hex="FB26"/>
  <anchor x="895" y="0" name="bottom"/>
  <anchor x="895" y="603" name="center"/>
  <anchor x="895" y="1157" name="top"/>
  <anchor x="-7" y="1157" name="topleft"/>
  <outline>
    <contour>
      <point x="150" y="0" type="line"/>
      <point x="1639" y="0" type="line"/>
      <point x="1639" y="1157" type="line"/>
      <point x="150" y="1157" type="line"/>
    </contour>
    <contour>
      <point x="209" y="55" type="line"/>
      <point x="209" y="1102" type="line"/>
      <point x="1580" y="1102" type="line"/>
      <point x="1580" y="55" type="line"/>
    </contour>
  </outline>
</glyph>
<glyph name="widereshhebrew" format="2">
  <advance width="1464"/>
  <unicode hex="FB27"/>
  <anchor x="1253" y="0" name="bottom"/>
  <anchor x="577" y="603" name="center"/>
  <anchor x="628" y="1157" name="top"/>
  <anchor x="-107" y="1157" name="topleft"/>
  <outline>
    <contour>
      <point x="1225" y="0" type="line"/>
      <point x="1284" y="0" type="line"/>
      <point x="1284" y="839" type="line" smooth="yes"/>
      <point x="1284" y="1039"/>
      <point x="1166" y="1157"/>
      <point x="967" y="1157" type="curve" smooth="yes"/>
      <point x="59" y="1157" type="line"/>
      <point x="59" y="1102" type="line"/>
      <point x="980" y="1102" type="line" smooth="yes"/>
      <point x="1127" y="1102"/>
      <point x="1225" y="1001"/>
      <point x="1225" y="850" type="curve" smooth="yes"/>
    </contour>
  </outline>
</glyph>
<glyph name="widetavhebrew" format="2">
  <advance width="1689"/>
  <unicode hex="FB28"/>
  <anchor x="879" y="0" name="bottom"/>
  <anchor x="893" y="603" name="center"/>
  <anchor x="871" y="1157" name="top"/>
  <anchor x="103" y="1157" name="topleft"/>
  <outline>
    <contour>
      <point x="1057" y="1157" type="curve" smooth="yes"/>
      <point x="111" y="1157" type="line"/>
      <point x="111" y="1102" type="line"/>
      <point x="366" y="1102" type="line"/>
      <point x="299" y="1030"/>
      <point x="254" y="879"/>
      <point x="254" y="724" type="curve" smooth="yes"/>
      <point x="254" y="274" type="line" smooth="yes"/>
      <point x="254" y="121"/>
      <point x="207" y="53"/>
      <point x="68" y="53" type="curve" smooth="yes"/>
      <point x="46" y="53"/>
      <point x="21" y="55"/>
      <point x="-5" y="59" type="curve"/>
      <point x="-5" y="4" type="line"/>
      <point x="23" y="0"/>
      <point x="49" y="-2"/>
      <point x="74" y="-2" type="curve" smooth="yes"/>
      <point x="235" y="-2"/>
      <point x="313" y="84"/>
      <point x="313" y="274" type="curve" smooth="yes"/>
      <point x="313" y="724" type="line" smooth="yes"/>
      <point x="313" y="882"/>
      <point x="357" y="1033"/>
      <point x="423" y="1102" type="curve"/>
      <point x="1060" y="1102" type="line" smooth="yes"/>
      <point x="1339" y="1102"/>
      <point x="1450" y="988"/>
      <point x="1450" y="704" type="curve" smooth="yes"/>
      <point x="1450" y="0" type="line"/>
      <point x="1509" y="0" type="line"/>
      <point x="1509" y="709" type="line" smooth="yes"/>
      <point x="1509" y="1016"/>
      <point x="1367" y="1157"/>
    </contour>
  </outline>
</glyph>
<glyph name="aleflamedhebrew" format="2">
  <advance width="1122"/>
  <unicode hex="FB4F"/>
  <outline>
    <contour>
      <point x="918" y="0" type="line"/>
      <point x="981" y="0" type="line"/>
      <point x="159" y="1118" type="line"/>
      <point x="159" y="1536" type="line"/>
      <point x="100" y="1536" type="line"/>
      <point x="100" y="1108" type="line"/>
    </contour>
    <contour>
      <point x="1007" y="1157" type="line"/>
      <point x="938" y="1157" type="line"/>
      <point x="547" y="532" type="line"/>
      <point x="591" y="492" type="line"/>
    </contour>
  </outline>
</glyph>
<glyph name="C.smcp" format="2">
  <advance width="1141"/>
  <guideline y="721"/>
  <guideline y="444"/>
  <guideline x="791"/>
  <anchor x="583" y="-8" name="bottom"/>
  <anchor x="1141" y="-407" name="bottom_dd"/>
  <anchor x="583" y="1320" name="top"/>
  <anchor x="1141" y="1320" name="top0315"/>
  <anchor x="1141" y="1600" name="top_dd"/>
  <outline>
    <contour>
      <point x="1026" y="358" type="curve"/>
      <point x="972" y="358" type="line"/>
      <point x="946" y="138"/>
      <point x="808" y="37"/>
      <point x="578" y="37" type="curve" smooth="yes"/>
      <point x="335" y="37"/>
      <point x="176" y="224"/>
      <point x="176" y="498" type="curve" smooth="yes"/>
      <point x="176" y="667" type="line" smooth="yes"/>
      <point x="176" y="943"/>
      <point x="336" y="1126"/>
      <point x="579" y="1126" type="curve" smooth="yes"/>
      <point x="814" y="1126"/>
      <point x="946" y="1014"/>
      <point x="972" y="807" type="curve"/>
      <point x="1026" y="807" type="line"/>
      <point x="1000" y="1053"/>
      <point x="832" y="1181"/>
      <point x="579" y="1181" type="curve" smooth="yes"/>
      <point x="301" y="1181"/>
      <point x="122" y="972"/>
      <point x="122" y="666" type="curve"/>
      <point x="122" y="498" type="line"/>
      <point x="122" y="192"/>
      <point x="301" y="-16"/>
      <point x="578" y="-16" type="curve" smooth="yes"/>
      <point x="832" y="-16"/>
      <point x="1000" y="110"/>
    </contour>
  </outline>
</glyph>
<glyph name="U.smcp" format="2">
  <advance width="1171"/>
  <guideline y="721"/>
  <guideline y="444"/>
  <anchor x="586" y="0" name="bottom"/>
  <anchor x="1171" y="-407" name="bottom_dd"/>
  <anchor x="790" y="20" name="ogonek"/>
  <anchor x="689" y="0" name="right"/>
  <anchor x="598" y="1320" name="top"/>
  <anchor x="1171" y="1320" name="top0315"/>
  <anchor x="1171" y="1600" name="top_dd"/>
  <outline>
    <contour>
      <point x="1015" y="1165" type="line"/>
      <point x="961" y="1165" type="line"/>
      <point x="961" y="375" type="line" smooth="yes"/>
      <point x="961" y="156"/>
      <point x="800" y="37"/>
      <point x="586" y="37" type="curve" smooth="yes"/>
      <point x="372" y="37"/>
      <point x="210" y="156"/>
      <point x="210" y="375" type="curve" smooth="yes"/>
      <point x="210" y="1165" type="line"/>
      <point x="157" y="1165" type="line"/>
      <point x="157" y="375" type="line"/>
      <point x="157" y="114"/>
      <point x="341" y="-16"/>
      <point x="586" y="-16" type="curve" smooth="yes"/>
      <point x="830" y="-16"/>
      <point x="1015" y="114"/>
      <point x="1015" y="375" type="curve"/>
    </contour>
  </outline>
</glyph>
<glyph name="Y.smcp" format="2">
  <advance width="1052"/>
  <guideline y="721"/>
  <guideline y="444"/>
  <anchor x="526" y="6" name="bottom"/>
  <anchor x="1052" y="-407" name="bottom_dd"/>
  <anchor x="524" y="467" name="cross"/>
  <anchor x="-61" y="1163" name="tonos"/>
  <anchor x="523" y="1320" name="top"/>
  <anchor x="1052" y="1320" name="top0315"/>
  <anchor x="1052" y="1600" name="top_dd"/>
  <outline>
    <contour>
      <point x="955" y="1165" type="line"/>
      <point x="542" y="510" type="line"/>
      <point x="502" y="436" type="line"/>
      <point x="551" y="436" type="line"/>
      <point x="1020" y="1165" type="line"/>
    </contour>
    <contour>
      <point x="507" y="509" type="line"/>
      <point x="95" y="1165" type="line"/>
      <point x="30" y="1165" type="line"/>
      <point x="499" y="436" type="line"/>
      <point x="545" y="436" type="line"/>
    </contour>
    <contour>
      <point x="552" y="0" type="line"/>
      <point x="552" y="472" type="line"/>
      <point x="497" y="472" type="line"/>
      <point x="497" y="0" type="line"/>
    </contour>
  </outline>
</glyph>
<glyph name="dollar.smcp" format="2">
  <advance width="1041"/>
  <outline>
    <contour>
      <point x="566" y="1169" type="line"/>
      <point x="566" y="1395" type="line"/>
      <point x="512" y="1395" type="line"/>
      <point x="512" y="1169" type="line"/>
    </contour>
    <contour>
      <point x="566" y="-237" type="line"/>
      <point x="566" y="-11" type="line"/>
      <point x="512" y="-11" type="line"/>
      <point x="512" y="-237" type="line"/>
    </contour>
    <component base="S.smcp"/>
  </outline>
</glyph>
<glyph name="one.smcp" format="2">
  <advance width="1010"/>
  <guideline y="721"/>
  <guideline y="444"/>
  <outline>
    <contour>
      <point x="596" y="0" type="line"/>
      <point x="596" y="1168" type="line"/>
      <point x="585" y="1168" type="line"/>
      <point x="167" y="1029" type="line"/>
      <point x="167" y="970" type="line"/>
      <point x="542" y="1093" type="line"/>
      <point x="542" y="0" type="line"/>
    </contour>
  </outline>
</glyph>
<glyph name="zero.sup" format="2">
  <advance width="728"/>
  <outline>
    <contour>
      <point x="632" y="327" type="curve"/>
      <point x="632" y="462" type="line"/>
      <point x="632" y="678"/>
      <point x="535" y="800"/>
      <point x="363" y="800" type="curve" smooth="yes"/>
      <point x="192" y="800"/>
      <point x="94" y="678"/>
      <point x="94" y="462" type="curve"/>
      <point x="94" y="327" type="line"/>
      <point x="94" y="111"/>
      <point x="194" y="-11"/>
      <point x="364" y="-11" type="curve" smooth="yes"/>
      <point x="537" y="-11"/>
      <point x="632" y="111"/>
    </contour>
    <contour>
      <point x="579" y="467" type="curve"/>
      <point x="579" y="322" type="line"/>
      <point x="579" y="151"/>
      <point x="510" y="37"/>
      <point x="364" y="37" type="curve" smooth="yes"/>
      <point x="220" y="37"/>
      <point x="147" y="151"/>
      <point x="147" y="322" type="curve" smooth="yes"/>
      <point x="147" y="467" type="line" smooth="yes"/>
      <point x="147" y="641"/>
      <point x="219" y="751"/>
      <point x="363" y="751" type="curve" smooth="yes"/>
      <point x="508" y="751"/>
      <point x="579" y="641"/>
    </contour>
  </outline>
</glyph>
